<svg id="Capa_1" enable-background="new 0 0 450.823 450.823" height="512" viewBox="0 0 450.823 450.823" width="512" xmlns="http://www.w3.org/2000/svg"><path id="path-1_42_" d="m148.781 261.84c8.253 11.004 8.253 28.844 0 39.847-8.253 11.004-21.633 11.004-29.886 0s-8.253-28.844 0-39.847 21.634-11.003 29.886 0" transform="translate(3.927 8.902)"/><path id="path-1_41_" d="m331.929 261.84c8.253 11.004 8.253 28.844 0 39.847-8.253 11.004-21.633 11.004-29.886 0s-8.253-28.844 0-39.847 21.633-11.003 29.886 0" transform="translate(10.427 8.902)"/><path d="m436.735 394.47c-29.951 0-45.649 8.365-59.49 15.739-12.534 6.673-23.347 12.437-46.268 12.437s-33.735-5.765-46.241-12.437c-13.854-7.374-29.552-15.739-59.504-15.739-29.924 0-45.594 8.365-59.421 15.753-12.492 6.659-23.292 12.423-46.172 12.423-22.866 0-33.652-5.765-46.145-12.423-13.827-7.388-29.497-15.753-59.407-15.753-7.786 0-14.087 6.301-14.087 14.088s6.301 14.088 14.088 14.088c22.866 0 33.652 5.765 46.145 12.424 13.827 7.388 29.497 15.753 59.407 15.753 29.924 0 45.608-8.365 59.435-15.753 12.492-6.659 23.292-12.424 46.158-12.424 22.921 0 33.721 5.765 46.241 12.437 13.854 7.374 29.552 15.739 59.504 15.739 29.965 0 45.663-8.365 59.517-15.739 12.52-6.673 23.32-12.437 46.241-12.437 7.787 0 14.088-6.301 14.088-14.088s-6.302-14.088-14.089-14.088z"/><path d="m47.751 370.917c10.289 3.078 18.377 7.194 25.745 11.13 2.36 1.257 4.669 2.428 6.999 3.589-10.086-42.932-36.6-127.883-48.604-165.714 76.77-22.316 180.134-50.795 193.52-50.864 13.387.069 116.751 28.548 193.52 50.864-11.997 37.811-38.492 122.692-48.588 165.645 2.296-1.145 4.575-2.296 6.901-3.534 7.386-3.935 15.502-8.054 25.831-11.13 10.46-38.528 28.962-99.608 47.073-156.167 1.156-3.605.812-7.539-.963-10.896-1.789-3.357-4.843-5.847-8.489-6.92-8.453-2.48-26.046-7.612-47.594-13.772h1.367v-112.706c0-7.787-6.301-14.088-14.088-14.088h-70.441v-42.265c0-7.787-6.301-14.088-14.088-14.088h-140.882c-7.787 0-14.088 6.301-14.088 14.088v42.265h-70.441c-7.787 0-14.088 6.301-14.088 14.088v112.706h1.367c-21.549 6.16-39.142 11.292-47.594 13.772-3.646 1.073-6.7 3.563-8.489 6.92-1.775 3.357-2.119 7.292-.963 10.896 18.112 56.566 36.618 117.657 47.077 156.181zm36.779-286.388h70.441c7.787 0 14.088-6.301 14.088-14.088v-42.265h112.706v42.265c0 7.787 6.301 14.088 14.088 14.088h70.441v91.011c-57.108-16.071-126.302-34.658-140.882-34.658s-83.775 18.587-140.882 34.658z"/></svg>