<?xml version="1.0" standalone="no"?>
<!DOCTYPE svg PUBLIC "-//W3C//DTD SVG 20010904//EN"
 "http://www.w3.org/TR/2001/REC-SVG-20010904/DTD/svg10.dtd">
<svg version="1.0" xmlns="http://www.w3.org/2000/svg"
 width="1280.000000pt" height="720.000000pt" viewBox="0 0 1280.000000 720.000000"
 preserveAspectRatio="xMidYMid meet">
<metadata>
Created by potrace 1.16, written by Peter Selinger 2001-2019
</metadata>
<g transform="translate(0.000000,720.000000) scale(0.100000,-0.100000)"
fill="#000000" stroke="none">
<path d="M5515 5533 c-1282 -43 -2455 -324 -3494 -838 l-206 -102 -130 -7
c-456 -24 -757 -51 -908 -83 -91 -19 -97 -25 -152 -157 -82 -199 -131 -465
-142 -770 l-6 -189 -50 -66 c-118 -155 -171 -350 -147 -535 26 -201 163 -455
292 -542 146 -98 506 -194 998 -264 187 -27 498 -55 508 -46 1 2 -10 57 -27
122 -16 66 -33 155 -36 199 -14 160 35 360 123 510 64 110 220 265 324 323
353 199 769 149 1060 -127 137 -130 223 -277 262 -450 38 -165 31 -290 -24
-487 -16 -59 -28 -110 -25 -113 11 -11 4017 -13 4530 -2 467 10 1045 30 1053
36 2 2 -9 49 -24 106 -84 324 -11 636 205 871 107 117 271 215 436 260 113 31
325 30 440 0 181 -49 363 -167 477 -310 68 -86 147 -241 173 -342 28 -109 31
-276 6 -409 -11 -63 -19 -116 -17 -118 4 -4 588 22 961 42 357 20 468 32 535
59 l55 22 3 514 c3 585 5 567 -77 691 -180 274 -628 539 -1224 723 -432 134
-1051 256 -1607 317 l-115 12 -205 114 c-837 464 -1721 830 -2254 932 -411 79
-1052 122 -1571 104z m933 -257 c448 -43 670 -83 962 -175 553 -174 1309 -519
1958 -892 l87 -50 165 -20 c647 -77 1185 -185 1621 -325 474 -152 834 -352
1010 -560 83 -99 79 -70 79 -537 l0 -414 -92 -6 c-143 -10 -604 -35 -785 -43
l-163 -7 0 49 c0 246 -84 502 -227 694 -56 75 -183 198 -260 251 -98 67 -237
132 -353 164 -117 33 -340 45 -471 25 -356 -51 -678 -287 -843 -618 -75 -150
-120 -362 -114 -542 l3 -105 -170 -7 c-640 -25 -2489 -35 -4056 -21 l-764 6 4
129 c1 72 -2 166 -9 211 -64 437 -397 811 -825 923 -133 35 -366 45 -497 20
-547 -103 -928 -561 -928 -1116 0 -102 -2 -120 -16 -120 -25 0 -340 49 -459
71 -236 44 -423 96 -547 151 -60 27 -72 38 -118 104 -117 169 -154 326 -115
479 22 84 61 150 133 226 l62 66 0 194 c0 227 19 408 59 569 44 174 66 228 99
234 93 18 452 48 802 66 l205 11 175 89 c961 486 2041 767 3220 839 222 14
974 5 1168 -13z"/>
<path d="M5420 5213 c-661 -28 -1358 -144 -1860 -309 -91 -30 -202 -73 -247
-95 -111 -55 -202 -139 -245 -227 -30 -61 -33 -74 -32 -157 1 -102 21 -167 79
-245 l34 -46 188 -17 c291 -26 790 -64 1208 -92 499 -33 1368 -85 1370 -82 1
1 -33 281 -76 622 -43 341 -78 628 -78 638 -1 15 -14 17 -138 15 -76 -1 -167
-3 -203 -5z m130 -235 c0 -2 22 -178 49 -393 27 -214 48 -391 47 -392 -4 -5
-1356 83 -1801 117 -441 34 -557 47 -566 62 -16 24 -9 90 11 124 24 38 105 94
181 125 391 156 1085 297 1669 338 85 6 171 13 190 15 45 4 220 7 220 4z"/>
<path d="M5860 5208 c0 -7 76 -299 168 -648 l168 -635 629 -32 c347 -18 943
-48 1325 -68 836 -42 839 -42 906 -11 121 56 131 200 22 302 -127 119 -458
335 -738 482 -670 351 -1433 565 -2180 612 -225 14 -300 13 -300 -2z m605
-263 c322 -41 655 -118 990 -230 449 -150 833 -336 1205 -584 118 -78 140 -97
120 -99 -30 -3 -2392 117 -2398 122 -2 2 -48 174 -103 382 -55 209 -103 393
-108 409 l-8 31 91 -8 c50 -5 145 -15 211 -23z"/>
<path d="M2790 3140 c-295 -41 -569 -258 -671 -529 -45 -121 -54 -172 -54
-316 0 -164 15 -233 79 -370 132 -280 408 -464 721 -482 409 -23 769 241 876
642 27 103 30 296 5 398 -91 381 -408 644 -795 661 -53 3 -125 1 -161 -4z
m265 -245 c168 -43 334 -174 408 -322 166 -336 9 -726 -349 -863 -81 -31 -252
-39 -344 -16 -178 45 -332 168 -408 327 -51 108 -66 173 -65 284 3 279 199
523 473 590 75 18 213 18 285 0z"/>
<path d="M10035 3140 c-346 -54 -616 -297 -706 -635 -30 -114 -30 -308 0 -420
43 -162 123 -297 244 -411 448 -426 1192 -241 1392 345 159 468 -115 976 -593
1101 -88 23 -253 33 -337 20z m264 -245 c134 -32 267 -119 348 -228 88 -118
124 -229 124 -377 0 -169 -58 -307 -181 -430 -84 -84 -179 -138 -290 -166 -97
-24 -263 -15 -352 19 -151 58 -272 165 -338 301 -51 104 -70 180 -70 281 0
278 195 527 470 599 73 19 209 19 289 1z"/>
</g>
</svg>
